<svg width="141" height="142" viewBox="0 0 141 142" fill="none" xmlns="http://www.w3.org/2000/svg">
<circle cx="71" cy="72" r="58.5" stroke="black" stroke-width="5"/>
<circle cx="71" cy="72" r="50" fill="black"/>
<path d="M58 59L84 84" stroke="white" stroke-width="4" stroke-linecap="round"/>
<path d="M84 84L139 71" stroke="white" stroke-width="4" stroke-linecap="round"/>
<path d="M57 84L2 71" stroke="white" stroke-width="4" stroke-linecap="round"/>
<path d="M82.9782 58.4944L71 2" stroke="white" stroke-width="4" stroke-linecap="round"/>
<path d="M82.9782 85L71 140" stroke="white" stroke-width="4" stroke-linecap="round"/>
<path d="M84 59L139 71" stroke="white" stroke-width="4" stroke-linecap="round"/>
<path d="M57 59L2 71" stroke="white" stroke-width="4" stroke-linecap="round"/>
<path d="M58 57.4516L71 2" stroke="white" stroke-width="4" stroke-linecap="round"/>
<path d="M58 86.0428L71 140" stroke="white" stroke-width="4" stroke-linecap="round"/>
<path d="M84 59L57 84" stroke="white" stroke-width="4" stroke-linecap="round"/>
<path d="M100 41L83 49" stroke="white" stroke-width="4" stroke-linecap="round"/>
<path d="M101 102L93 83" stroke="white" stroke-width="4" stroke-linecap="round"/>
<path d="M41 102L48 83" stroke="white" stroke-width="4" stroke-linecap="round"/>
<path d="M40 41L48 60" stroke="white" stroke-width="4" stroke-linecap="round"/>
<path d="M100 41L93 59" stroke="white" stroke-width="4" stroke-linecap="round"/>
<path d="M101 102L82 94" stroke="white" stroke-width="4" stroke-linecap="round"/>
<path d="M41 102L59 94" stroke="white" stroke-width="4" stroke-linecap="round"/>
<path d="M40 41L57.2924 48.3926" stroke="white" stroke-width="4" stroke-linecap="round"/>
</svg>
