<svg width="151" height="152" viewBox="0 0 151 152" fill="none" xmlns="http://www.w3.org/2000/svg">
<path d="M63 64L89 89" stroke="white" stroke-width="13" stroke-linecap="round"/>
<path d="M89 89L144 76" stroke="white" stroke-width="13" stroke-linecap="round"/>
<path d="M62 89L7 76" stroke="white" stroke-width="13" stroke-linecap="round"/>
<path d="M87.9782 63.4944L76 7" stroke="white" stroke-width="13" stroke-linecap="round"/>
<path d="M87.9782 90L76 145" stroke="white" stroke-width="13" stroke-linecap="round"/>
<path d="M89 64L144 76" stroke="white" stroke-width="13" stroke-linecap="round"/>
<path d="M62 64L7 76" stroke="white" stroke-width="13" stroke-linecap="round"/>
<path d="M63 62.4516L76 7" stroke="white" stroke-width="13" stroke-linecap="round"/>
<path d="M63 91.0428L76 145" stroke="white" stroke-width="13" stroke-linecap="round"/>
<path d="M89 64L62 89" stroke="white" stroke-width="13" stroke-linecap="round"/>
<path d="M105 46L88 54" stroke="white" stroke-width="13" stroke-linecap="round"/>
<path d="M106 107L98 88" stroke="white" stroke-width="13" stroke-linecap="round"/>
<path d="M46 107L53 88" stroke="white" stroke-width="13" stroke-linecap="round"/>
<path d="M45 46L53 65" stroke="white" stroke-width="13" stroke-linecap="round"/>
<path d="M105 46L98 64" stroke="white" stroke-width="13" stroke-linecap="round"/>
<path d="M106 107L87 99" stroke="white" stroke-width="13" stroke-linecap="round"/>
<path d="M46 107L64 99" stroke="white" stroke-width="13" stroke-linecap="round"/>
<path d="M45 46L62.2924 53.3926" stroke="white" stroke-width="13" stroke-linecap="round"/>
</svg>
