<svg width="318" height="103" viewBox="0 0 318 103" fill="none" xmlns="http://www.w3.org/2000/svg">
<path d="M294.497 102V57.2H317.409V59.568H296.865V75.952H317.409V78.32H296.865V99.632H317.409V102H294.497Z" fill="#0E0E0E"/>
<path d="M281.493 102H278.613L266.197 82.992C264.619 83.2053 262.869 83.3547 260.949 83.44V102H258.581V57.136C272.875 57.1787 280.021 61.4667 280.021 70C280.021 76.8693 276.267 81.072 268.757 82.608L281.493 102ZM260.949 80.88L261.589 80.944C272.299 80.7733 277.653 77.1893 277.653 70.192C277.653 68.2293 277.184 66.608 276.245 65.328C275.349 64.0053 274.325 62.9813 273.173 62.256C270.443 60.5493 266.368 59.6533 260.949 59.568V80.88Z" fill="#0E0E0E"/>
<path d="M242.071 86.512C242.071 91.4187 241.09 95.2587 239.127 98.032C237.164 100.763 234.284 102.128 230.487 102.128C226.69 102.128 223.852 100.613 221.975 97.584C220.098 94.5547 219.159 90.864 219.159 86.512V57.2H221.527V86.448C221.527 90.8 222.402 94.1067 224.151 96.368C225.943 98.6293 228.098 99.76 230.615 99.76C233.175 99.76 235.33 98.6507 237.079 96.432C238.828 94.1707 239.703 90.8427 239.703 86.448V57.2H242.071V86.512Z" fill="#0E0E0E"/>
<path d="M196.452 102H194.084V59.568H183.844V57.2H206.756V59.568H196.452V102Z" fill="#0E0E0E"/>
<path d="M150.579 61.232V102H148.211V57.136H151.603L168.755 96.56V57.2H171.123V102H168.755L150.579 61.232Z" fill="#0E0E0E"/>
<path d="M110.547 102V57.2H133.459V59.568H112.915V75.952H133.459V78.32H112.915V99.632H133.459V102H110.547Z" fill="#0E0E0E"/>
<path d="M83.85 102L74.186 57.2H76.554L85.45 98.16L94.346 57.2H96.714L87.178 102H83.85Z" fill="#0E0E0E"/>
<path d="M62.941 80.496C62.941 83.6533 62.557 86.5547 61.789 89.2C61.021 91.8027 59.9757 93.9147 58.653 95.536C57.373 97.1573 55.7303 98.4587 53.725 99.44C50.0983 101.275 45.533 102.192 40.029 102.192V57.136C45.8743 57.136 50.4823 58.0107 53.853 59.76C56.7543 61.296 58.9303 63.5787 60.381 66.608C62.0877 70.1067 62.941 74.736 62.941 80.496ZM60.573 79.792C60.573 66.352 54.5143 59.632 42.397 59.632V99.76C49.309 99.6747 54.1303 97.6907 56.861 93.808C59.3357 90.3093 60.573 85.6373 60.573 79.792Z" fill="#0E0E0E"/>
<path d="M23.392 60.528V102H21.024V80.88H2.848V102H0.479996V72.688C0.479996 68.08 1.952 64.304 4.896 61.36C7.84 58.416 11.5307 56.944 15.968 56.944C19.2107 56.944 21.6853 58.1387 23.392 60.528ZM21.024 78.512V61.424C19.6587 60.016 17.9307 59.312 15.84 59.312C12.0853 59.312 8.97066 60.6773 6.496 63.408C4.064 66.1387 2.848 69.2533 2.848 72.752V78.512H21.024Z" fill="#0E0E0E"/>
<path d="M247.751 46H225.479V1.2H227.847V43.632H247.751V46Z" fill="#0E0E0E"/>
<path d="M208.842 4.528V46H206.474V24.88H188.298V46H185.93V16.688C185.93 12.08 187.402 8.304 190.346 5.36C193.29 2.416 196.981 0.944 201.418 0.944C204.661 0.944 207.135 2.13867 208.842 4.528ZM206.474 22.512V5.424C205.109 4.016 203.381 3.312 201.29 3.312C197.535 3.312 194.421 4.67733 191.946 7.408C189.514 10.1387 188.298 13.2533 188.298 16.752V22.512H206.474Z" fill="#0E0E0E"/>
<path d="M173.311 46H170.431L158.015 26.992C156.436 27.2053 154.687 27.3547 152.767 27.44V46H150.399V1.136C164.692 1.17867 171.839 5.46667 171.839 14C171.839 20.8693 168.084 25.072 160.575 26.608L173.311 46ZM152.767 24.88L153.407 24.944C164.116 24.7733 169.471 21.1893 169.471 14.192C169.471 12.2293 169.002 10.608 168.063 9.328C167.167 8.00534 166.143 6.98133 164.991 6.256C162.26 4.54934 158.186 3.65334 152.767 3.568V24.88Z" fill="#0E0E0E"/>
<path d="M133.889 30.512C133.889 35.4187 132.907 39.2587 130.945 42.032C128.982 44.7627 126.102 46.128 122.305 46.128C118.507 46.128 115.67 44.6133 113.793 41.584C111.915 38.5547 110.977 34.864 110.977 30.512V1.2H113.345V30.448C113.345 34.8 114.219 38.1067 115.969 40.368C117.761 42.6293 119.915 43.76 122.433 43.76C124.993 43.76 127.147 42.6507 128.896 40.432C130.646 38.1707 131.521 34.8427 131.521 30.448V1.2H133.889V30.512Z" fill="#0E0E0E"/>
<path d="M88.27 46H85.902V3.568H75.662V1.2H98.574V3.568H88.27V46Z" fill="#0E0E0E"/>
<path d="M63.057 4.528V46H60.689V24.88H42.513V46H40.145V16.688C40.145 12.08 41.617 8.304 44.561 5.36C47.505 2.416 51.1957 0.944 55.633 0.944C58.8757 0.944 61.3503 2.13867 63.057 4.528ZM60.689 22.512V5.424C59.3237 4.016 57.5957 3.312 55.505 3.312C51.7503 3.312 48.6357 4.67733 46.161 7.408C43.729 10.1387 42.513 13.2533 42.513 16.752V22.512H60.689Z" fill="#0E0E0E"/>
<path d="M3.232 5.232V46H0.863998V1.136H4.256L21.408 40.56V1.2H23.776V46H21.408L3.232 5.232Z" fill="#0E0E0E"/>
</svg>
